<?xml version="1.0" standalone="no"?>
<!DOCTYPE svg PUBLIC "-//W3C//DTD SVG 20010904//EN"
 "http://www.w3.org/TR/2001/REC-SVG-20010904/DTD/svg10.dtd">
<svg version="1.0" xmlns="http://www.w3.org/2000/svg"
 width="900.000000pt" height="900.000000pt" viewBox="0 0 900.000000 900.000000"
 preserveAspectRatio="xMidYMid meet">
<metadata>
Created by potrace 1.14, written by Peter Selinger 2001-2017
</metadata>
<g transform="translate(0.000000,900.000000) scale(0.100000,-0.100000)"
fill="#000000" stroke="none">
<path d="M2954 4910 c-68 -27 -132 -85 -169 -151 -28 -51 -30 -61 -30 -164 0
-103 2 -113 30 -164 38 -68 102 -125 174 -152 46 -17 72 -20 146 -17 81 3 97
7 155 39 l65 36 3 161 2 162 -110 0 -110 0 0 -59 0 -60 43 -3 42 -3 3 -57 c3
-66 -6 -75 -86 -85 -129 -15 -232 75 -232 202 0 163 166 253 322 174 l42 -22
44 49 c51 55 50 56 -48 103 -75 35 -210 41 -286 11z"/>
<path d="M7730 4860 c-28 -28 -23 -67 12 -93 35 -26 75 -15 97 25 14 25 14 29
-5 55 -27 37 -75 42 -104 13z"/>
<path d="M3498 4703 l-48 -4 0 -220 0 -219 60 0 60 0 0 139 0 139 30 32 c28
30 34 32 74 27 l43 -6 7 46 c3 25 6 52 6 59 0 22 -61 17 -113 -10 l-47 -23 0
23 c0 14 -6 23 -12 22 -7 -1 -34 -3 -60 -5z"/>
<path d="M3925 4691 c-76 -35 -122 -98 -132 -181 -17 -142 84 -254 227 -254
144 0 240 106 228 251 -13 152 -183 249 -323 184z m153 -105 c66 -34 76 -141
18 -195 -29 -27 -92 -37 -125 -19 -58 31 -79 100 -52 167 24 55 99 78 159 47z"/>
<path d="M4322 4548 c3 -181 14 -220 71 -260 41 -29 133 -36 178 -14 39 20 39
20 39 1 0 -12 13 -15 60 -15 l60 0 0 225 0 225 -60 0 -60 0 0 -147 c-1 -101
-5 -153 -13 -164 -34 -45 -92 -46 -127 -2 -18 23 -20 41 -20 169 l0 144 -66 0
-66 0 4 -162z"/>
<path d="M4895 4701 l-50 -6 -3 -312 -2 -313 65 0 65 0 0 109 0 110 28 -15
c36 -18 113 -18 160 2 84 35 131 110 132 209 0 112 -78 204 -187 221 -38 6
-59 2 -115 -21 -13 -5 -18 -2 -18 9 0 9 -6 15 -12 14 -7 0 -35 -4 -63 -7z
m234 -116 c52 -26 71 -124 33 -174 -24 -32 -82 -56 -117 -47 -15 4 -38 18 -51
31 -20 20 -24 34 -24 88 0 35 5 70 13 79 31 39 96 49 146 23z"/>
<path d="M5500 4697 c-48 -15 -113 -83 -128 -133 -29 -99 -6 -191 65 -255 132
-119 349 -40 378 139 15 95 -42 204 -129 243 -46 21 -131 23 -186 6z m166
-131 c28 -28 34 -42 34 -75 0 -102 -90 -162 -171 -114 -31 18 -59 67 -59 102
0 34 26 87 51 105 13 9 43 16 67 16 37 0 50 -6 78 -34z"/>
<path d="M5955 4701 l-50 -6 -3 -217 -2 -218 65 0 65 0 0 149 0 150 26 20 c30
24 52 26 88 9 36 -16 46 -61 46 -205 l0 -123 60 0 60 0 0 145 c0 142 1 147 25
170 31 32 66 32 102 1 28 -24 28 -24 31 -170 l4 -146 59 0 59 0 0 163 c0 149
-2 165 -23 201 -32 58 -78 81 -157 81 -49 0 -74 -5 -102 -22 l-38 -22 -34 20
c-51 30 -123 35 -168 11 -37 -19 -38 -19 -38 -1 0 10 -6 18 -12 17 -7 0 -35
-4 -63 -7z"/>
<path d="M6812 4695 c-98 -28 -108 -40 -69 -88 20 -25 25 -27 50 -18 47 18
131 14 150 -7 23 -25 22 -46 0 -37 -10 5 -47 10 -83 12 -82 5 -125 -16 -157
-77 -43 -82 -22 -164 51 -200 51 -24 134 -27 176 -5 27 14 30 14 30 0 0 -12
14 -15 66 -15 l66 0 -4 163 c-4 183 -15 221 -74 258 -45 27 -133 33 -202 14z
m134 -236 c21 -18 18 -76 -5 -89 -29 -15 -104 -12 -129 6 -40 27 -21 83 33 97
28 8 84 0 101 -14z"/>
<path d="M7253 4703 l-53 -4 0 -220 0 -219 65 0 65 0 0 148 c0 142 1 149 23
170 31 29 72 28 102 -3 24 -23 25 -28 25 -170 l0 -145 65 0 65 0 0 157 c0 138
-2 162 -21 199 -38 79 -145 116 -221 76 -35 -18 -37 -18 -41 -1 -3 11 -9 18
-14 17 -4 -1 -32 -3 -60 -5z"/>
<path d="M7720 4485 l0 -225 60 0 60 0 0 225 0 225 -60 0 -60 0 0 -225z"/>
<path d="M8075 4700 c-22 -6 -57 -17 -77 -26 l-37 -17 22 -39 c17 -31 26 -37
42 -32 11 3 48 8 83 11 51 4 66 2 82 -12 26 -23 27 -50 3 -40 -10 5 -47 10
-83 12 -80 5 -124 -16 -157 -73 -45 -77 -21 -172 51 -205 49 -22 124 -24 171
-5 31 13 35 13 35 0 0 -11 14 -14 60 -14 l60 0 0 166 c0 188 -8 219 -66 255
-40 24 -129 33 -189 19z m120 -240 c20 -17 19 -59 -2 -82 -21 -23 -99 -25
-131 -2 -38 26 -23 77 28 97 22 9 89 1 105 -13z"/>
</g>
</svg>
